<svg id="Layer_1" data-name="Layer 1" xmlns="http://www.w3.org/2000/svg" xmlns:xlink="http://www.w3.org/1999/xlink" viewBox="0 0 380.06 443.73"><defs><linearGradient id="linear-gradient" x1="6.5" y1="300.23" x2="359.5" y2="300.23" gradientUnits="userSpaceOnUse"><stop offset="0" stop-color="#fff"/><stop offset="1"/></linearGradient><clipPath id="clip-path" transform="translate(-72.5 -60.27)"><path d="M260.24,232.5a10.59,10.59,0,0,0-6,0c-15.63,4.69-34,1-33-4,1.86-9.3,17-10,17-10s10-1,25,10c0,0,1,0,4,2,3.58,2.39-.72,3.75-7,1.74" style="fill:none;stroke:#666;stroke-miterlimit:10"/></clipPath><clipPath id="clip-path-2" transform="translate(-72.5 -60.27)"><path d="M260.2,232.5a10.59,10.59,0,0,0-6,0c-15.63,4.69-34,1-33-4,1.86-9.3,17-10,17-10s10-1,25,10c0,0,1,0,4,2,3.58,2.39-.72,3.75-7,1.74" style="fill:none;stroke:#666;stroke-miterlimit:10"/></clipPath><clipPath id="clip-path-3" transform="translate(-72.5 -60.27)"><path d="M317.74,232.5a11.22,11.22,0,0,1,6.18,0c16.08,4.69,35,1,34-4-1.91-9.3-17.49-10-17.49-10s-10.3-1-25.73,10c0,0-1,0-4.12,2-3.69,2.39.73,3.75,7.2,1.74" style="fill:none;stroke:#666;stroke-miterlimit:10"/></clipPath></defs><title>face</title><circle cx="216" cy="118.23" r="107" style="fill:#fff"/><path d="M288.5,72A106.5,106.5,0,1,1,182,178.5,106.63,106.63,0,0,1,288.5,72m0-1A107.5,107.5,0,1,0,396,178.5,107.5,107.5,0,0,0,288.5,71Z" transform="translate(-72.5 -60.27)" style="fill:#666"/><line x1="6.5" y1="11" x2="359.5" y2="11" style="fill:#fff;stroke:#666;stroke-miterlimit:10"/><polyline points="359 10.73 359 188.61 359 443.73" style="fill:#fff;stroke:#666;stroke-miterlimit:10"/><path d="M379.5,396.17" transform="translate(-72.5 -60.27)" style="fill:#fff;stroke:#666;stroke-miterlimit:10"/><path d="M183.5,160.5c-.65,5.73-1.47,14-2,24-3.14,58.8-1,78,9,107,6,17.28,11,58,25.8,74l15.46,16,20.24,21c9.5,8,62.5,8,72,0l35.78-37c19.72-22,21-55.68,26.72-74,10-32,10.4-61.79,9.36-101.48a297.6,297.6,0,0,0-2.36-30.52" transform="translate(-72.5 -60.27)" style="fill:#fff;stroke:#666;stroke-miterlimit:10"/><line x1="379.56" x2="379.56" y2="331.73" style="fill:#bfbfbf;stroke:#666;stroke-miterlimit:10"/><path d="M340.2,216.42" transform="translate(-72.5 -60.27)" style="fill:#fff;stroke:#666;stroke-miterlimit:10"/><path d="M340.2,216.42" transform="translate(-72.5 -60.27)" style="fill:#fff;stroke:#666;stroke-miterlimit:10"/><line x1="71" y1="20.73" x2="71" y2="351.73" style="fill:#bfbfbf;stroke:#666;stroke-miterlimit:10"/><path d="M181.21,185.1" transform="translate(-72.5 -60.27)" style="fill:#fff;stroke:#666;stroke-miterlimit:10"/><line x1="99" y1="342.23" x2="359.5" y2="342.23" style="fill:#fff;stroke:#666;stroke-miterlimit:10"/><line x1="216" y1="10.73" x2="216" y2="342.73" style="fill:#fff;stroke:#666;stroke-miterlimit:10"/><line x1="7.5" y1="171.23" x2="359.5" y2="171.23" style="fill:#fff;stroke:#666;stroke-miterlimit:10"/><line x1="360.5" y1="256.46" y2="256.46" style="stroke:#666;stroke-miterlimit:10"/><line x1="359.5" y1="300.23" x2="6.5" y2="300.23" style="stroke:#666;stroke-miterlimit:10;fill:url(#linear-gradient)"/><line x1="360.5" y1="214.23" x2="7.5" y2="214.23" style="fill:#fff;stroke:#666;stroke-miterlimit:10"/><line x1="8.5" y1="91.23" x2="360.5" y2="91.23" style="fill:#fff;stroke:#666;stroke-miterlimit:10"/><line x1="193.31" y1="303.73" x2="193.81" y2="154.23" style="fill:#bfbfbf;stroke:#666;stroke-miterlimit:10"/><line x1="240" y1="302.73" x2="240.19" y2="154.23" style="fill:#bfbfbf;stroke:#666;stroke-miterlimit:10"/><path d="M379.5,207.5" transform="translate(-72.5 -60.27)" style="fill:#e9e9e9;stroke:#666;stroke-miterlimit:10"/><path d="M301.5,212.5" transform="translate(-72.5 -60.27)" style="fill:#e9e9e9;stroke:#666;stroke-miterlimit:10"/><g style="clip-path:url(#clip-path)"><path d="M347.65,217.38a11,11,0,0,1,1.22,17.29" transform="translate(-72.5 -60.27)" style="fill:#fff;stroke:#666;stroke-miterlimit:10"/><path d="M334.13,234.67a11,11,0,0,1-3.63-8.17,10.88,10.88,0,0,1,2.32-6.75" transform="translate(-72.5 -60.27)" style="fill:#fff;stroke:#666;stroke-miterlimit:10"/></g><path d="M260.24,232.5a10.59,10.59,0,0,0-6,0c-15.63,4.69-34,1-33-4,1.86-9.3,17-10,17-10s10-1,25,10c0,0,1,0,4,2,3.58,2.39-.72,3.75-7,1.74" transform="translate(-72.5 -60.27)" style="fill:none;stroke:#666;stroke-miterlimit:10"/><path d="M265.8,224.83c-9.6-10.33-17.6-11.33-17.6-11.33a77.71,77.71,0,0,0-11-1c-7,0-16,4-20,7" transform="translate(-72.5 -60.27)" style="fill:none;stroke:#666;stroke-miterlimit:10"/><g style="clip-path:url(#clip-path-2)"><path d="M234.05,217.38a11,11,0,0,0-1.22,17.29" transform="translate(-72.5 -60.27)" style="fill:#fff;stroke:#666;stroke-miterlimit:10"/><path d="M247.57,234.67a11,11,0,0,0,1.31-14.92" transform="translate(-72.5 -60.27)" style="fill:#fff;stroke:#666;stroke-miterlimit:10"/></g><path d="M260.2,232.5a10.59,10.59,0,0,0-6,0c-15.63,4.69-34,1-33-4,1.86-9.3,17-10,17-10s10-1,25,10c0,0,1,0,4,2,3.58,2.39-.72,3.75-7,1.74" transform="translate(-72.5 -60.27)" style="fill:none;stroke:#666;stroke-miterlimit:10"/><path d="M312,224.83c9.89-10.33,18.12-11.33,18.12-11.33a82.43,82.43,0,0,1,11.33-1c7.2,0,16.46,4,20.58,7" transform="translate(-72.5 -60.27)" style="fill:none;stroke:#666;stroke-miterlimit:10"/><g style="clip-path:url(#clip-path-3)"><path d="M344.66,217.38a10.81,10.81,0,0,1,1.25,17.29" transform="translate(-72.5 -60.27)" style="fill:#fff;stroke:#666;stroke-miterlimit:10"/><path d="M330.74,234.67A10.87,10.87,0,0,1,327,226.5a10.75,10.75,0,0,1,2.38-6.75" transform="translate(-72.5 -60.27)" style="fill:#fff;stroke:#666;stroke-miterlimit:10"/></g><path d="M317.74,232.5a11.22,11.22,0,0,1,6.18,0c16.08,4.69,35,1,34-4-1.91-9.3-17.49-10-17.49-10s-10.3-1-25.73,10c0,0-1,0-4.12,2-3.69,2.39.73,3.75,7.2,1.74" transform="translate(-72.5 -60.27)" style="fill:none;stroke:#666;stroke-miterlimit:10"/><line x1="207" y1="171.23" x2="203" y2="253.23" style="fill:#fff;stroke:#666;stroke-miterlimit:10"/><path d="M298.5,325.5" transform="translate(-72.5 -60.27)" style="fill:#fff;stroke:#666;stroke-miterlimit:10"/><path d="M296.5,231.5" transform="translate(-72.5 -60.27)" style="fill:#fff;stroke:#666;stroke-miterlimit:10"/><path d="M277.17,279.28,265.8,298v12l22.41,6.77L312.69,310V298L300.4,279.87c-.42-23.38-.9-50.37-.9-50.37" transform="translate(-72.5 -60.27)" style="fill:#fff;stroke:#666;stroke-miterlimit:10"/><circle cx="216" cy="242.23" r="13" style="fill:#fff;stroke:#666;stroke-miterlimit:10"/><path d="M299.5,231.5c2-17,10-22,10-22" transform="translate(-72.5 -60.27)" style="fill:none;stroke:#666;stroke-miterlimit:10"/><path d="M279.27,231.5c-2-17-10-22-10-22" transform="translate(-72.5 -60.27)" style="fill:none;stroke:#666;stroke-miterlimit:10"/><path d="M289.5,212.5" transform="translate(-72.5 -60.27)" style="fill:none;stroke:#666;stroke-miterlimit:10"/><path d="M279.5,234.5" transform="translate(-72.5 -60.27)" style="fill:none;stroke:#666;stroke-miterlimit:10"/></svg>