<?xml version="1.0" encoding="UTF-8" standalone="no" ?>
<!DOCTYPE svg PUBLIC "-//W3C//DTD SVG 1.1//EN" "http://www.w3.org/Graphics/SVG/1.1/DTD/svg11.dtd">
<svg xmlns="http://www.w3.org/2000/svg" xmlns:xlink="http://www.w3.org/1999/xlink" version="1.1" width="230" height="349" viewBox="0 1 230 349" xml:space="preserve">
<desc>Created with Fabric.js 4.6.0</desc>
<defs>
</defs>
<g transform="matrix(1 0 0 1 115.85 114.68)" id="1lICWeWL658yLf4ELLT32"  >
<path style="stroke: none; stroke-width: 1; stroke-dasharray: none; stroke-linecap: butt; stroke-dashoffset: 0; stroke-linejoin: miter; stroke-miterlimit: 4; fill: rgb(190,21,21); fill-rule: nonzero; opacity: 1;" vector-effect="non-scaling-stroke"  transform=" translate(-107, -107)" d="M 0 107 C 0 47.90553 47.90553 0 107 0 C 166.09447 0 214 47.90553 214 107 C 214 166.09447 166.09447 214 107 214 C 47.90553 214 0 166.09447 0 107 z" stroke-linecap="round" />
</g>
<g transform="matrix(1 0 0 1 115.85 115.18)" id="rUSEKwMN9cRkAXGAblVdh"  >
<path style="stroke: none; stroke-width: 1; stroke-dasharray: none; stroke-linecap: butt; stroke-dashoffset: 0; stroke-linejoin: miter; stroke-miterlimit: 4; fill: rgb(102,102,102); fill-rule: nonzero; opacity: 1;" vector-effect="non-scaling-stroke"  transform=" translate(0, 0)" d="M 0 -106.5 C 58.81833 -106.5 106.5 -58.81833 106.5 0 C 106.5 58.81833 58.81833 106.5 0 106.5 C -58.81833 106.5 -106.5 58.81833 -106.5 0 C -106.42837 -58.78863 -58.78863 -106.42837 0 -106.5 M 0 -107.5 C -59.37061 -107.5 -107.5 -59.37061 -107.5 0 C -107.5 59.37061 -59.37061 107.5 0 107.5 C 59.37061 107.5 107.5 59.37061 107.5 0 C 107.5 -59.37061 59.37061 -107.5 0 -107.5 z" stroke-linecap="round" />
</g>
<g transform="matrix(1 0 0 1 204.85 332.86)" id="UINpPAUdxYr6ot-Thp_dc"  >
<path style="stroke: rgb(102,102,102); stroke-width: 1; stroke-dasharray: none; stroke-linecap: butt; stroke-dashoffset: 0; stroke-linejoin: miter; stroke-miterlimit: 10; fill: rgb(255,255,255); fill-rule: nonzero; opacity: 1;" vector-effect="non-scaling-stroke"  transform=" translate(-379.5, -396.17)" d="M 379.5 396.17" stroke-linecap="round" />
</g>
<g transform="matrix(1 0 0 1 115.61 218.82)" id="X4jThJa1uRZJpCTwxW27_"  >
<path style="stroke: rgb(102,102,102); stroke-width: 1; stroke-dasharray: none; stroke-linecap: butt; stroke-dashoffset: 0; stroke-linejoin: miter; stroke-miterlimit: 10; fill: rgb(190,21,21); fill-rule: nonzero; opacity: 1;" vector-effect="non-scaling-stroke"  transform=" translate(0, 0)" d="M -104.70565 -123.5 C -105.35565000000001 -117.77 -106.17565 -109.5 -106.70565 -99.5 C -109.84565 -40.7 -107.70565 -21.5 -97.70565 7.5 C -91.70565 24.78 -86.70565 65.5 -71.90565000000001 81.5 L -56.44565000000001 97.5 L -36.205650000000006 118.5 C -26.705650000000006 126.5 26.294349999999994 126.5 35.794349999999994 118.5 L 71.57435 81.5 C 91.29435 59.5 92.57435 25.82 98.29435 7.5 C 108.29435 -24.5 108.69435 -54.29 107.65435 -93.98 C 107.39175999999999 -104.18708000000001 106.60405999999999 -114.37389 105.29435 -124.5" stroke-linecap="round" />
</g>
<g transform="matrix(1 0 0 1 165.55 153.1)" id="SyD3Q31oSLzSiQWM45giX"  >
<path style="stroke: rgb(102,102,102); stroke-width: 1; stroke-dasharray: none; stroke-linecap: butt; stroke-dashoffset: 0; stroke-linejoin: miter; stroke-miterlimit: 10; fill: rgb(255,255,255); fill-rule: nonzero; opacity: 1;" vector-effect="non-scaling-stroke"  transform=" translate(-340.2, -216.42)" d="M 340.2 216.42" stroke-linecap="round" />
</g>
<g transform="matrix(1 0 0 1 165.55 153.1)" id="YBJrksj0pC-Wbqwal877J"  >
<path style="stroke: rgb(102,102,102); stroke-width: 1; stroke-dasharray: none; stroke-linecap: butt; stroke-dashoffset: 0; stroke-linejoin: miter; stroke-miterlimit: 10; fill: rgb(255,255,255); fill-rule: nonzero; opacity: 1;" vector-effect="non-scaling-stroke"  transform=" translate(-340.2, -216.42)" d="M 340.2 216.42" stroke-linecap="round" />
</g>
<g transform="matrix(1 0 0 1 6.56 121.78)" id="3DdHT8Cn_LSW0UbcBzAza"  >
<path style="stroke: rgb(102,102,102); stroke-width: 1; stroke-dasharray: none; stroke-linecap: butt; stroke-dashoffset: 0; stroke-linejoin: miter; stroke-miterlimit: 10; fill: rgb(255,255,255); fill-rule: nonzero; opacity: 1;" vector-effect="non-scaling-stroke"  transform=" translate(-181.21, -185.1)" d="M 181.21 185.1" stroke-linecap="round" />
</g>
<g transform="matrix(1 0 0 1 204.85 144.18)" id="bcjuFdaBNepfjDa-vWzuz"  >
<path style="stroke: rgb(102,102,102); stroke-width: 1; stroke-dasharray: none; stroke-linecap: butt; stroke-dashoffset: 0; stroke-linejoin: miter; stroke-miterlimit: 10; fill: rgb(233,233,233); fill-rule: nonzero; opacity: 1;" vector-effect="non-scaling-stroke"  transform=" translate(-379.5, -207.5)" d="M 379.5 207.5" stroke-linecap="round" />
</g>
<g transform="matrix(1 0 0 1 126.85 149.18)" id="1cxPZRI2Hsngm8KYtXcDp"  >
<path style="stroke: rgb(102,102,102); stroke-width: 1; stroke-dasharray: none; stroke-linecap: butt; stroke-dashoffset: 0; stroke-linejoin: miter; stroke-miterlimit: 10; fill: rgb(233,233,233); fill-rule: nonzero; opacity: 1;" vector-effect="non-scaling-stroke"  transform=" translate(-301.5, -212.5)" d="M 301.5 212.5" stroke-linecap="round" />
</g>
<g transform="matrix(1 0 0 1 175.43 162.71)" id="zp05yl8QrSOD_LarK0h97" clip-path="url(#CLIPPATH_34)"  >
<clipPath id="CLIPPATH_34" >
	<path transform="matrix(1 0 0 1 -105.21 0.54) translate(-244.87, -226.57)" id="clip-path" d="M 260.24 232.5 C 258.2818211527646 231.9215804099817 256.1981788472354 231.9215804099817 254.24 232.5 C 238.61 237.19 220.24 233.5 221.24 228.5 C 223.10000000000002 219.2 238.24 218.5 238.24 218.5 C 238.24 218.5 248.24 217.5 263.24 228.5 C 263.24 228.5 264.24 228.5 267.24 230.5 C 270.82 232.89 266.52 234.25 260.24 232.24" stroke-linecap="round" />
</clipPath>
<path style="stroke: rgb(102,102,102); stroke-width: 1; stroke-dasharray: none; stroke-linecap: butt; stroke-dashoffset: 0; stroke-linejoin: miter; stroke-miterlimit: 10; fill: rgb(255,255,255); fill-rule: nonzero; opacity: 1;" vector-effect="non-scaling-stroke"  transform=" translate(-350.08, -226.02)" d="M 347.65 217.38 C 350.4571495519441 219.27184834500676 352.2368988874265 222.35082848442647 352.47516546248465 225.72757363422605 C 352.7134320375428 229.10431878402562 351.383676428943 232.4027087575564 348.87 234.67" stroke-linecap="round" />
</g>
<g transform="matrix(1 0 0 1 157.66 163.89)" id="0QKtj8JHpMoOZTg73fEHm" clip-path="url(#CLIPPATH_35)"  >
<clipPath id="CLIPPATH_35" >
	<path transform="matrix(1 0 0 1 -87.44 -0.64) translate(-244.87, -226.57)" id="clip-path" d="M 260.24 232.5 C 258.2818211527646 231.9215804099817 256.1981788472354 231.9215804099817 254.24 232.5 C 238.61 237.19 220.24 233.5 221.24 228.5 C 223.10000000000002 219.2 238.24 218.5 238.24 218.5 C 238.24 218.5 248.24 217.5 263.24 228.5 C 263.24 228.5 264.24 228.5 267.24 230.5 C 270.82 232.89 266.52 234.25 260.24 232.24" stroke-linecap="round" />
</clipPath>
<path style="stroke: rgb(102,102,102); stroke-width: 1; stroke-dasharray: none; stroke-linecap: butt; stroke-dashoffset: 0; stroke-linejoin: miter; stroke-miterlimit: 10; fill: rgb(255,255,255); fill-rule: nonzero; opacity: 1;" vector-effect="non-scaling-stroke"  transform=" translate(-332.31, -227.21)" d="M 334.13 234.67 C 331.8179799856128 232.5833428025819 330.4988597690401 229.61441383029566 330.5 226.5 C 330.49230436437136 224.05313311774904 331.3096411189104 221.6751059224308 332.82 219.75" stroke-linecap="round" />
</g>
<g transform="matrix(1 0 0 1 70.22 163.25)" id="oer-doBlju2ZTSQjrqo6W"  >
<path style="stroke: rgb(102,102,102); stroke-width: 1; stroke-dasharray: none; stroke-linecap: butt; stroke-dashoffset: 0; stroke-linejoin: miter; stroke-miterlimit: 10; fill: none; fill-rule: nonzero; opacity: 1;" vector-effect="non-scaling-stroke"  transform=" translate(-244.87, -226.57)" d="M 260.24 232.5 C 258.2818211527646 231.9215804099817 256.1981788472354 231.9215804099817 254.24 232.5 C 238.61 237.19 220.24 233.5 221.24 228.5 C 223.10000000000002 219.2 238.24 218.5 238.24 218.5 C 238.24 218.5 248.24 217.5 263.24 228.5 C 263.24 228.5 264.24 228.5 267.24 230.5 C 270.82 232.89 266.52 234.25 260.24 232.24" stroke-linecap="round" />
</g>
<g transform="matrix(1 0 0 1 66.85 155.35)" id="R9u1xCoij_BOy2RXQjIIy"  >
<path style="stroke: rgb(102,102,102); stroke-width: 1; stroke-dasharray: none; stroke-linecap: butt; stroke-dashoffset: 0; stroke-linejoin: miter; stroke-miterlimit: 10; fill: none; fill-rule: nonzero; opacity: 1;" vector-effect="non-scaling-stroke"  transform=" translate(-241.5, -218.67)" d="M 265.8 224.83 C 256.2 214.5 248.20000000000002 213.5 248.20000000000002 213.5 C 244.56169407261598 212.90617674259468 240.88574445040163 212.57199950421156 237.2 212.5 C 230.20000000000002 212.5 221.20000000000002 216.5 217.20000000000002 219.5" stroke-linecap="round" />
</g>
<g transform="matrix(1 0 0 1 56.97 162.71)" id="YWPqOMP3g6ygB4jBaSxqc" clip-path="url(#CLIPPATH_36)"  >
<clipPath id="CLIPPATH_36" >
	<path transform="matrix(1 0 0 1 13.21 0.54) translate(-244.83, -226.57)" id="clip-path-2" d="M 260.2 232.5 C 258.2418211527646 231.9215804099817 256.1581788472354 231.9215804099817 254.2 232.5 C 238.57 237.19 220.2 233.5 221.2 228.5 C 223.06 219.2 238.2 218.5 238.2 218.5 C 238.2 218.5 248.2 217.5 263.2 228.5 C 263.2 228.5 264.2 228.5 267.2 230.5 C 270.78 232.89 266.47999999999996 234.25 260.2 232.24" stroke-linecap="round" />
</clipPath>
<path style="stroke: rgb(102,102,102); stroke-width: 1; stroke-dasharray: none; stroke-linecap: butt; stroke-dashoffset: 0; stroke-linejoin: miter; stroke-miterlimit: 10; fill: rgb(255,255,255); fill-rule: nonzero; opacity: 1;" vector-effect="non-scaling-stroke"  transform=" translate(-231.62, -226.02)" d="M 234.05 217.38 C 231.2428504480559 219.27184834500676 229.4631011125735 222.35082848442647 229.22483453751533 225.72757363422605 C 228.98656796245717 229.10431878402562 230.316323571057 232.4027087575564 232.83 234.67" stroke-linecap="round" />
</g>
<g transform="matrix(1 0 0 1 74.73 163.89)" id="FrcR52VR1_waFXmMsGLGN" clip-path="url(#CLIPPATH_37)"  >
<clipPath id="CLIPPATH_37" >
	<path transform="matrix(1 0 0 1 -4.55 -0.64) translate(-244.83, -226.57)" id="clip-path-2" d="M 260.2 232.5 C 258.2418211527646 231.9215804099817 256.1581788472354 231.9215804099817 254.2 232.5 C 238.57 237.19 220.2 233.5 221.2 228.5 C 223.06 219.2 238.2 218.5 238.2 218.5 C 238.2 218.5 248.2 217.5 263.2 228.5 C 263.2 228.5 264.2 228.5 267.2 230.5 C 270.78 232.89 266.47999999999996 234.25 260.2 232.24" stroke-linecap="round" />
</clipPath>
<path style="stroke: rgb(102,102,102); stroke-width: 1; stroke-dasharray: none; stroke-linecap: butt; stroke-dashoffset: 0; stroke-linejoin: miter; stroke-miterlimit: 10; fill: rgb(255,255,255); fill-rule: nonzero; opacity: 1;" vector-effect="non-scaling-stroke"  transform=" translate(-249.38, -227.21)" d="M 247.57 234.67 C 251.84785988505664 230.8078118241745 252.41938313231992 224.2985546874048 248.88 219.75" stroke-linecap="round" />
</g>
<g transform="matrix(1 0 0 1 70.18 163.25)" id="Rgsb0pveS55kZ5ll5cZn6"  >
<path style="stroke: rgb(102,102,102); stroke-width: 1; stroke-dasharray: none; stroke-linecap: butt; stroke-dashoffset: 0; stroke-linejoin: miter; stroke-miterlimit: 10; fill: none; fill-rule: nonzero; opacity: 1;" vector-effect="non-scaling-stroke"  transform=" translate(-244.83, -226.57)" d="M 260.2 232.5 C 258.2418211527646 231.9215804099817 256.1581788472354 231.9215804099817 254.2 232.5 C 238.57 237.19 220.2 233.5 221.2 228.5 C 223.06 219.2 238.2 218.5 238.2 218.5 C 238.2 218.5 248.2 217.5 263.2 228.5 C 263.2 228.5 264.2 228.5 267.2 230.5 C 270.78 232.89 266.47999999999996 234.25 260.2 232.24" stroke-linecap="round" />
</g>
<g transform="matrix(1 0 0 1 162.37 155.35)" id="NLK08zl7lHClgsIgkF8CI"  >
<path style="stroke: rgb(102,102,102); stroke-width: 1; stroke-dasharray: none; stroke-linecap: butt; stroke-dashoffset: 0; stroke-linejoin: miter; stroke-miterlimit: 10; fill: none; fill-rule: nonzero; opacity: 1;" vector-effect="non-scaling-stroke"  transform=" translate(-337.01, -218.67)" d="M 312 224.83 C 321.89 214.5 330.12 213.5 330.12 213.5 C 333.8691369713855 212.9061931376665 337.6548134018671 212.57206459128682 341.44999999999993 212.5 C 348.65 212.5 357.90999999999997 216.5 362.03 219.5" stroke-linecap="round" />
</g>
<g transform="matrix(1 0 0 1 172.51 162.71)" id="Zs6x_7GUD-LCwFhyuzQ7n" clip-path="url(#CLIPPATH_38)"  >
<clipPath id="CLIPPATH_38" >
	<path transform="matrix(1 0 0 1 -13.56 0.54) translate(-333.6, -226.57)" id="clip-path-3" d="M 317.74 232.5 C 319.75938397848876 231.92148810102765 321.90061602151127 231.92148810102765 323.92 232.5 C 340 237.19 358.92 233.5 357.92 228.5 C 356.01 219.2 340.43 218.5 340.43 218.5 C 340.43 218.5 330.13 217.5 314.7 228.5 C 314.7 228.5 313.7 228.5 310.58 230.5 C 306.89 232.89 311.31 234.25 317.78 232.24" stroke-linecap="round" />
</clipPath>
<path style="stroke: rgb(102,102,102); stroke-width: 1; stroke-dasharray: none; stroke-linecap: butt; stroke-dashoffset: 0; stroke-linejoin: miter; stroke-miterlimit: 10; fill: rgb(255,255,255); fill-rule: nonzero; opacity: 1;" vector-effect="non-scaling-stroke"  transform=" translate(-347.16, -226.02)" d="M 344.66 217.38 C 347.537384230143 219.21745252539813 349.3776638944647 222.3061800474249 349.6238422109806 225.71131852147334 C 349.8700205274966 229.11645699552176 348.49316203625597 232.43777113955278 345.91 234.67" stroke-linecap="round" />
</g>
<g transform="matrix(1 0 0 1 154.22 163.89)" id="VwYcXaL065oLwCVYTjnZu" clip-path="url(#CLIPPATH_39)"  >
<clipPath id="CLIPPATH_39" >
	<path transform="matrix(1 0 0 1 4.73 -0.64) translate(-333.6, -226.57)" id="clip-path-3" d="M 317.74 232.5 C 319.75938397848876 231.92148810102765 321.90061602151127 231.92148810102765 323.92 232.5 C 340 237.19 358.92 233.5 357.92 228.5 C 356.01 219.2 340.43 218.5 340.43 218.5 C 340.43 218.5 330.13 217.5 314.7 228.5 C 314.7 228.5 313.7 228.5 310.58 230.5 C 306.89 232.89 311.31 234.25 317.78 232.24" stroke-linecap="round" />
</clipPath>
<path style="stroke: rgb(102,102,102); stroke-width: 1; stroke-dasharray: none; stroke-linecap: butt; stroke-dashoffset: 0; stroke-linejoin: miter; stroke-miterlimit: 10; fill: rgb(255,255,255); fill-rule: nonzero; opacity: 1;" vector-effect="non-scaling-stroke"  transform=" translate(-328.87, -227.21)" d="M 330.74 234.67 C 328.37342019137844 232.61348144313484 327.01007366164123 229.6352618848586 327 226.5 C 326.99903707313683 224.04419876552438 327.8389480797007 221.6620982216983 329.38 219.75" stroke-linecap="round" />
</g>
<g transform="matrix(1 0 0 1 158.95 163.25)" id="QD0UX-jscE-fL4lMTBnpk"  >
<path style="stroke: rgb(102,102,102); stroke-width: 1; stroke-dasharray: none; stroke-linecap: butt; stroke-dashoffset: 0; stroke-linejoin: miter; stroke-miterlimit: 10; fill: none; fill-rule: nonzero; opacity: 1;" vector-effect="non-scaling-stroke"  transform=" translate(-333.6, -226.57)" d="M 317.74 232.5 C 319.75938397848876 231.92148810102765 321.90061602151127 231.92148810102765 323.92 232.5 C 340 237.19 358.92 233.5 357.92 228.5 C 356.01 219.2 340.43 218.5 340.43 218.5 C 340.43 218.5 330.13 217.5 314.7 228.5 C 314.7 228.5 313.7 228.5 310.58 230.5 C 306.89 232.89 311.31 234.25 317.78 232.24" stroke-linecap="round" />
</g>
<g transform="matrix(1 0 0 1 102.85 209.18)" id="8-U0Rtt9O_Qv8xA2MNFpr"  >
<line style="stroke: rgb(102,102,102); stroke-width: 1; stroke-dasharray: none; stroke-linecap: butt; stroke-dashoffset: 0; stroke-linejoin: miter; stroke-miterlimit: 10; fill: rgb(255,255,255); fill-rule: nonzero; opacity: 1;" vector-effect="non-scaling-stroke"  x1="2" y1="-41" x2="-2" y2="41" />
</g>
<g transform="matrix(1 0 0 1 123.85 262.19)" id="uv3YVgHwJqATWP7rc_SXM"  >
<path style="stroke: rgb(102,102,102); stroke-width: 1; stroke-dasharray: none; stroke-linecap: butt; stroke-dashoffset: 0; stroke-linejoin: miter; stroke-miterlimit: 10; fill: rgb(255,255,255); fill-rule: nonzero; opacity: 1;" vector-effect="non-scaling-stroke"  transform=" translate(-298.5, -325.5)" d="M 298.5 325.5" stroke-linecap="round" />
</g>
<g transform="matrix(1 0 0 1 121.85 168.18)" id="iFhWJrDc5s-yh2fTJw__z"  >
<path style="stroke: rgb(102,102,102); stroke-width: 1; stroke-dasharray: none; stroke-linecap: butt; stroke-dashoffset: 0; stroke-linejoin: miter; stroke-miterlimit: 10; fill: rgb(255,255,255); fill-rule: nonzero; opacity: 1;" vector-effect="non-scaling-stroke"  transform=" translate(-296.5, -231.5)" d="M 296.5 231.5" stroke-linecap="round" />
</g>
<g transform="matrix(1 0 0 1 114.6 209.82)" id="3fd5pFZYfuFttK_538bhB"  >
<path style="stroke: rgb(102,102,102); stroke-width: 1; stroke-dasharray: none; stroke-linecap: butt; stroke-dashoffset: 0; stroke-linejoin: miter; stroke-miterlimit: 10; fill: rgb(190,21,21); fill-rule: nonzero; opacity: 1;" vector-effect="non-scaling-stroke"  transform=" translate(-289.25, -273.13)" d="M 277.17 279.28 L 265.8 298 L 265.8 310 L 288.21000000000004 316.77 L 312.69 310 L 312.69 298 L 300.4 279.87 C 299.97999999999996 256.49 299.5 229.5 299.5 229.5" stroke-linecap="round" />
</g>
<g transform="matrix(1 0 0 1 129.85 157.18)" id="gLrskj9KxNsHohVVkLN38"  >
<path style="stroke: rgb(102,102,102); stroke-width: 1; stroke-dasharray: none; stroke-linecap: butt; stroke-dashoffset: 0; stroke-linejoin: miter; stroke-miterlimit: 10; fill: none; fill-rule: nonzero; opacity: 1;" vector-effect="non-scaling-stroke"  transform=" translate(-304.5, -220.5)" d="M 299.5 231.5 C 301.5 214.5 309.5 209.5 309.5 209.5" stroke-linecap="round" />
</g>
<g transform="matrix(1 0 0 1 99.62 157.18)" id="DGZ7DUG_lG0nsiEkB1B27"  >
<path style="stroke: rgb(102,102,102); stroke-width: 1; stroke-dasharray: none; stroke-linecap: butt; stroke-dashoffset: 0; stroke-linejoin: miter; stroke-miterlimit: 10; fill: none; fill-rule: nonzero; opacity: 1;" vector-effect="non-scaling-stroke"  transform=" translate(-274.27, -220.5)" d="M 279.27 231.5 C 277.27 214.5 269.27 209.5 269.27 209.5" stroke-linecap="round" />
</g>
<g transform="matrix(1 0 0 1 114.85 149.18)" id="W7AvDOVhfiTqnwQIWmavu"  >
<path style="stroke: rgb(102,102,102); stroke-width: 1; stroke-dasharray: none; stroke-linecap: butt; stroke-dashoffset: 0; stroke-linejoin: miter; stroke-miterlimit: 10; fill: none; fill-rule: nonzero; opacity: 1;" vector-effect="non-scaling-stroke"  transform=" translate(-289.5, -212.5)" d="M 289.5 212.5" stroke-linecap="round" />
</g>
<g transform="matrix(1 0 0 1 104.85 171.18)" id="D20cyRm-EhzE9nRd_THnc"  >
<path style="stroke: rgb(102,102,102); stroke-width: 1; stroke-dasharray: none; stroke-linecap: butt; stroke-dashoffset: 0; stroke-linejoin: miter; stroke-miterlimit: 10; fill: none; fill-rule: nonzero; opacity: 1;" vector-effect="non-scaling-stroke"  transform=" translate(-279.5, -234.5)" d="M 279.5 234.5" stroke-linecap="round" />
</g>
</svg>