<?xml version="1.0" encoding="UTF-8" standalone="no" ?>
<!DOCTYPE svg PUBLIC "-//W3C//DTD SVG 1.1//EN" "http://www.w3.org/Graphics/SVG/1.1/DTD/svg11.dtd">
<svg xmlns="http://www.w3.org/2000/svg" xmlns:xlink="http://www.w3.org/1999/xlink" version="1.1" width="323" height="281" viewBox="89 110 323 281" xml:space="preserve">
<desc>Created with Fabric.js 4.6.0</desc>
<defs>
</defs>
<g transform="matrix(1 0 0 1 250 250)" id="gtC4DKtEUYfk7cCfRI4wV"  >
<path style="stroke: rgb(0,0,0); stroke-width: 1; stroke-dasharray: none; stroke-linecap: butt; stroke-dashoffset: 0; stroke-linejoin: miter; stroke-miterlimit: 4; fill: rgb(0,0,0); fill-rule: nonzero; opacity: 1;" vector-effect="non-scaling-stroke"  transform=" translate(-155.92, -135)" d="M 0.92 269 L 155.92 1 L 310.91999999999996 269 L 298.91999999999996 269 L 155.91999999999996 20 L 11.919999999999959 269 z" stroke-linecap="round" />
</g>
<g transform="matrix(1 0 0 1 249.5 279.5)" id="VUtm909zYEo4f3Jm2VkvH"  >
<path style="stroke: rgb(0,0,0); stroke-width: 1; stroke-dasharray: none; stroke-linecap: butt; stroke-dashoffset: 0; stroke-linejoin: miter; stroke-miterlimit: 4; fill: rgb(0,0,0); fill-rule: nonzero; opacity: 1;" vector-effect="non-scaling-stroke"  transform=" translate(-155.42, -164.5)" d="M 34.92 269 L 155.92000000000002 60 L 275.92 269 L 264.92 269 L 154.92000000000002 80 L 45.920000000000016 269 z" stroke-linecap="round" />
</g>
<g transform="matrix(1 0 0 1 248.5 309.5)" id="7F2Mf2mYC4WOc7IIeWl77"  >
<path style="stroke: rgb(0,0,0); stroke-width: 1; stroke-dasharray: none; stroke-linecap: butt; stroke-dashoffset: 0; stroke-linejoin: miter; stroke-miterlimit: 4; fill: rgb(0,0,0); fill-rule: nonzero; opacity: 1;" vector-effect="non-scaling-stroke"  transform=" translate(-154.42, -194.5)" d="M 67.92 269 L 153.92000000000002 120 L 240.92000000000002 269 L 228.92000000000002 269 L 153.92000000000002 140 L 79.92000000000002 269 z" stroke-linecap="round" />
</g>
<g transform="matrix(1 0 0 1 119.43 380.25)" id="knueuq9XULZhWbvDldknb"  >
<path style="stroke: rgb(0,0,0); stroke-width: 1; stroke-dasharray: none; stroke-linecap: butt; stroke-dashoffset: 0; stroke-linejoin: miter; stroke-miterlimit: 4; fill: rgb(0,0,0); fill-rule: nonzero; opacity: 1;" vector-effect="non-scaling-stroke"  transform=" translate(-25.35, -265.25)" d="M 0.92 269 L 45.92 269 L 49.78 261.5 L 5.75 261.5 z" stroke-linecap="round" />
</g>
<g transform="matrix(1 0 0 1 344.17 380.25)" id="uRsW2l5V4S6-7j9Y0Fi_H"  >
<path style="stroke: rgb(0,0,0); stroke-width: 1; stroke-dasharray: none; stroke-linecap: butt; stroke-dashoffset: 0; stroke-linejoin: miter; stroke-miterlimit: 4; fill: rgb(0,0,0); fill-rule: nonzero; opacity: 1;" vector-effect="non-scaling-stroke"  transform=" translate(-250.09, -265.25)" d="M 275.92 269 L 228.92000000000002 269 L 224.26000000000002 261.5 L 271.6 261.5 z" stroke-linecap="round" />
</g>
</svg>