<?xml version="1.0" encoding="UTF-8" standalone="no" ?>
<!DOCTYPE svg PUBLIC "-//W3C//DTD SVG 1.1//EN" "http://www.w3.org/Graphics/SVG/1.1/DTD/svg11.dtd">
<svg xmlns="http://www.w3.org/2000/svg" xmlns:xlink="http://www.w3.org/1999/xlink" version="1.1" width="324" height="274" viewBox="90 116 324 274" xml:space="preserve">
<desc>Created with Fabric.js 4.6.0</desc>
<defs>
</defs>
<g transform="matrix(1 0 0 1 252.31 252.83)" id="R39HX1gtW8OiNW67zEidR"  >
<polyline style="stroke: rgb(0,0,0); stroke-width: 12; stroke-dasharray: none; stroke-linecap: round; stroke-dashoffset: 0; stroke-linejoin: miter; stroke-miterlimit: 10; fill: none; fill-rule: nonzero; opacity: 1;" vector-effect="non-scaling-stroke"  points="150,125 0.48,-125 -150,125 -117.97,125 -0.49,-69.96 116.99,125 82.03,125 -1.46,-13.99 -84.96,125 " />
</g>
<g transform="matrix(1 0 0 1 177.32 252.82)" id="vP5OBu-4Kg57pEholLGIc"  >
<linearGradient id="SVGID_19" gradientUnits="userSpaceOnUse" gradientTransform="matrix(1 0 0 1 0 0)"  x1="8.61" y1="136.66" x2="162.61" y2="136.66">
<stop offset="0%" style="stop-color:rgb(255,78,5);stop-opacity: 1"/>
<stop offset="61%" style="stop-color:rgb(96,29,2);stop-opacity: 1"/>
<stop offset="100%" style="stop-color:rgb(0,0,0);stop-opacity: 1"/>
</linearGradient>
<path style="stroke: none; stroke-width: 1; stroke-dasharray: none; stroke-linecap: butt; stroke-dashoffset: 0; stroke-linejoin: miter; stroke-miterlimit: 4; fill: url(#SVGID_19); fill-rule: nonzero; opacity: 1;" vector-effect="non-scaling-stroke"  transform=" translate(-85.63, -136.65)" d="M 10.44 261.56 C 13.309999999999999 256.19 16.29 250.9 19.21 245.56 L 28.21 229.68 C 34.21 219.1 40.31 208.61 46.44 198.12 C 58.72 177.12 71.6 156.55 84.28 135.83 L 122.28 73.64000000000001 L 160.46 11.550000000000011 C 160.51522847498308 11.453350168779624 160.63835016877962 11.419771525016936 160.735 11.475000000000014 C 160.8316498312204 11.530228474983092 160.86522847498307 11.653350168779623 160.81 11.75000000000001 L 124 74.68 L 87 137.49 C 74.68 158.43 62.56 179.49 49.84 200.19 C 43.470000000000006 210.53 37.09 220.88 30.570000000000004 231.13 L 20.780000000000005 246.51 C 17.450000000000003 251.59 14.180000000000005 256.71 10.780000000000005 261.76 C 10.751281296369303 261.80562400148324 10.705360230867912 261.8377220441242 10.65264667283428 261.8490178065599 C 10.599933114800647 261.8603135689957 10.544891774163583 261.8498503276702 10.500000000000005 261.82 C 10.42043355901993 261.75880992787256 10.39529323072544 261.6498685052631 10.44 261.56 Z" stroke-linecap="round" />
</g>
<g transform="matrix(1 0 0 1 326.82 251.83)" id="VzSldYsC-a-y56rXtTEJD"  >
<linearGradient id="SVGID_20" gradientUnits="userSpaceOnUse" gradientTransform="matrix(1 0 0 1 0 0)"  x1="159.11" y1="135.67" x2="311.11" y2="135.67">
<stop offset="0%" style="stop-color:rgb(255,78,5);stop-opacity: 1"/>
<stop offset="61%" style="stop-color:rgb(96,29,2);stop-opacity: 1"/>
<stop offset="100%" style="stop-color:rgb(0,0,0);stop-opacity: 1"/>
</linearGradient>
<path style="stroke: none; stroke-width: 1; stroke-dasharray: none; stroke-linecap: butt; stroke-dashoffset: 0; stroke-linejoin: miter; stroke-miterlimit: 4; fill: url(#SVGID_20); fill-rule: nonzero; opacity: 1;" vector-effect="non-scaling-stroke"  transform=" translate(-235.12, -135.66)" d="M 161.29 12.06 C 164.63 17.060000000000002 167.85999999999999 22.060000000000002 171.14999999999998 27.130000000000003 L 180.80999999999997 42.32 C 187.24999999999997 52.45 193.53999999999996 62.67 199.80999999999997 72.88 C 212.36999999999998 93.33 224.31999999999996 114.15 236.46999999999997 134.88 L 273 196.9 L 309.32 259.06 C 309.3719497645286 259.1567035887263 309.3362453262816 259.27720606780997 309.24 259.33 C 309.1954351795423 259.3585988776055 309.1409574765071 259.3673030074328 309.08970006162474 259.3540140480188 C 309.03844264674245 259.34072508860487 308.9950561724632 259.3066487646591 308.97 259.26 L 271.29 197.93 L 233.77 136.48000000000002 C 221.22 116 208.51 95.66 196.4 74.94 C 190.4 64.57 184.31 54.209999999999994 178.4 43.75 L 169.56 28.07 C 166.68 22.8 163.74 17.57 160.92000000000002 12.26 C 160.8793444624816 12.165439321789213 160.91321833635547 12.055349231699125 161 12 C 161.09767248789154 11.942205562284224 161.22327948868005 11.968193217619774 161.29 12.06 Z" stroke-linecap="round" />
</g>
<g transform="matrix(1 0 0 1 192.3 279.86)" id="xXFz7m_rGvqUzFKpvRVxm"  >
<linearGradient id="SVGID_21" gradientUnits="userSpaceOnUse" gradientTransform="matrix(1 0 0 1 0 0)"  x1="39.11" y1="163.67" x2="162.11" y2="163.67">
<stop offset="0%" style="stop-color:rgb(0,0,0);stop-opacity: 1"/>
<stop offset="39%" style="stop-color:rgb(96,29,2);stop-opacity: 1"/>
<stop offset="100%" style="stop-color:rgb(255,78,5);stop-opacity: 1"/>
</linearGradient>
<path style="stroke: none; stroke-width: 1; stroke-dasharray: none; stroke-linecap: butt; stroke-dashoffset: 0; stroke-linejoin: miter; stroke-miterlimit: 4; fill: url(#SVGID_21); fill-rule: nonzero; opacity: 1;" vector-effect="non-scaling-stroke"  transform=" translate(-100.6, -163.69)" d="M 160.29 65.27 Q 153.54 78 146.44 90.51 C 141.74 98.87 136.92 107.17 132.07999999999998 115.45 C 122.40999999999998 132.01 112.07999999999998 148.16 101.97999999999999 164.45 L 71.72 213.43 L 41.29 262.27 C 41.23201010126777 262.36664983122034 41.106649831220395 262.39798989873225 41.010000000000005 262.34 C 40.91335016877962 262.28201010126776 40.88201010126777 262.15664983122036 40.94 262.06 L 70 212.39 L 99.24 162.82999999999998 C 109 146.32999999999998 118.47999999999999 129.64 128.64 113.37999999999998 C 133.72 105.23999999999998 138.82 97.11999999999998 144.02999999999997 89.05999999999997 C 149.23999999999995 80.99999999999997 154.50999999999996 72.98999999999998 159.92999999999998 65.05999999999997 C 160.0077687020397 64.98377142476112 160.13223129796026 64.98377142476112 160.20999999999998 65.05999999999997 C 160.2771897365055 65.10698529676675 160.30889796227513 65.19021938941202 160.29 65.27 Z" stroke-linecap="round" />
</g>
<g transform="matrix(1 0 0 1 310.06 279.12)" id="pOuoS7vsnt8QHRDcN6KDW"  >
<linearGradient id="SVGID_22" gradientUnits="userSpaceOnUse" gradientTransform="matrix(1 0 0 1 0 0)"  x1="158.61" y1="162.91" x2="278.11" y2="162.91">
<stop offset="0%" style="stop-color:rgb(0,0,0);stop-opacity: 1"/>
<stop offset="39%" style="stop-color:rgb(96,29,2);stop-opacity: 1"/>
<stop offset="100%" style="stop-color:rgb(255,78,5);stop-opacity: 1"/>
</linearGradient>
<path style="stroke: none; stroke-width: 1; stroke-dasharray: none; stroke-linecap: butt; stroke-dashoffset: 0; stroke-linejoin: miter; stroke-miterlimit: 4; fill: url(#SVGID_22); fill-rule: nonzero; opacity: 1;" vector-effect="non-scaling-stroke"  transform=" translate(-218.36, -162.95)" d="M 275.94 260.26 Q 268.02 248.53 260.46999999999997 236.57 C 255.39999999999998 228.57 250.46999999999997 220.57 245.46999999999997 212.57 C 235.64 196.5 226.46 180 217 163.73 L 188.63 114.8 L 160.44 65.8 C 160.38805023547138 65.70329641127366 160.4237546737184 65.58279393218997 160.52 65.53 C 160.61473721213238 65.481562897319 160.73072997501725 65.51163509510395 160.79000000000002 65.6 L 190.35000000000002 113.82 L 219.74 162.13 C 229.51000000000002 178.25 239.59 194.2 248.96 210.56 C 253.65 218.73 258.33 226.92000000000002 262.89 235.17000000000002 C 267.45 243.42000000000002 271.94 251.72000000000003 276.28999999999996 260.1 C 276.3142139431245 260.14768051349057 276.3183245280996 260.203072226869 276.30141374335034 260.2538045811168 C 276.2845029586011 260.3045369353646 276.24797946259395 260.3463839550823 276.2 260.37 C 276.0978291125142 260.4111977430122 275.98158059416767 260.3620156775579 275.94 260.26 Z" stroke-linecap="round" />
</g>
<g transform="matrix(1 0 0 1 209.8 307.33)" id="RyjxMk0CCfP0Yrx1Wt2PQ"  >
<linearGradient id="SVGID_23" gradientUnits="userSpaceOnUse" gradientTransform="matrix(1 0 0 1 0 0)"  x1="75.11" y1="191.16" x2="161.11" y2="191.16">
<stop offset="0%" style="stop-color:rgb(255,78,5);stop-opacity: 1"/>
<stop offset="61%" style="stop-color:rgb(96,29,2);stop-opacity: 1"/>
<stop offset="100%" style="stop-color:rgb(0,0,0);stop-opacity: 1"/>
</linearGradient>
<path style="stroke: none; stroke-width: 1; stroke-dasharray: none; stroke-linecap: butt; stroke-dashoffset: 0; stroke-linejoin: miter; stroke-miterlimit: 4; fill: url(#SVGID_23); fill-rule: nonzero; opacity: 1;" vector-effect="non-scaling-stroke"  transform=" translate(-118.1, -191.16)" d="M 159.29 122.26 L 139.47 157.17000000000002 L 119.47 191.98000000000002 C 112.78999999999999 203.57000000000002 106.4 215.33 99.31 226.68 C 95.78 232.36 92.22 238.03 88.55 243.63 C 84.88 249.23 81.14999999999999 254.79 77.27 260.26 C 77.23969432596957 260.3040077110213 77.19303898084779 260.3340586889322 77.14043781331483 260.3434517545631 C 77.08783664578188 260.352844820194 77.03366398723742 260.3407988429378 76.99 260.31 C 76.90840158556931 260.2551915762069 76.8787273911209 260.1492123103198 76.92 260.06 Q 81.35 251.06 86.14 242.19 C 89.3 236.29 92.58 230.46 95.88 224.64 C 102.46 212.98999999999998 109.74 201.76 116.72 190.33999999999997 L 137.72 156.14999999999998 L 158.9 122.05999999999997 C 158.96311249398596 121.9695999878878 159.0853871346693 121.94339827916994 159.18 121.99999999999997 C 159.23086694688536 122.01760097016623 159.27188149625883 122.05595119332202 159.29285426622442 122.1055231950589 C 159.31382703619002 122.15509519679577 159.3127897121534 122.2112365971635 159.29 122.26 Z" stroke-linecap="round" />
</g>
<g transform="matrix(1 0 0 1 292.83 309.82)" id="Z7MDwSSIYZnn8tC8hKlHd"  >
<linearGradient id="SVGID_24" gradientUnits="userSpaceOnUse" gradientTransform="matrix(1 0 0 1 0 0)"  x1="160.11" y1="193.67" x2="242.11" y2="193.67">
<stop offset="0%" style="stop-color:rgb(255,78,5);stop-opacity: 1"/>
<stop offset="61%" style="stop-color:rgb(96,29,2);stop-opacity: 1"/>
<stop offset="100%" style="stop-color:rgb(0,0,0);stop-opacity: 1"/>
</linearGradient>
<path style="stroke: none; stroke-width: 1; stroke-dasharray: none; stroke-linecap: butt; stroke-dashoffset: 0; stroke-linejoin: miter; stroke-miterlimit: 4; fill: url(#SVGID_24); fill-rule: nonzero; opacity: 1;" vector-effect="non-scaling-stroke"  transform=" translate(-201.14, -193.65)" d="M 239.94 260.26 L 219.75 227.42 L 199.75 194.46999999999997 C 193.1 183.46999999999997 186.16 172.65999999999997 179.91 161.41999999999996 C 176.78 155.80999999999995 173.67 150.18999999999997 170.67 144.49999999999994 C 167.67 138.80999999999992 164.73999999999998 133.07999999999996 161.95999999999998 127.25999999999995 C 161.9047715250169 127.16335016877956 161.93835016877958 127.04022847498302 162.03499999999997 126.98499999999996 C 162.13164983122036 126.92977152501687 162.2547715250169 126.96335016877956 162.30999999999997 127.05999999999995 Q 167.89 134.96999999999994 173.09999999999997 143.05999999999995 C 176.59999999999997 148.44999999999993 179.98999999999995 153.90999999999994 183.35999999999996 159.37999999999994 C 190.10999999999996 170.31999999999994 196.15999999999997 181.65999999999994 202.50999999999996 192.82999999999993 L 221.50999999999996 226.38999999999993 L 240.31999999999996 260.0399999999999 C 240.37522847498303 260.13664983122027 240.34164983122034 260.25977152501684 240.24499999999998 260.3149999999999 C 240.1483501687796 260.370228474983 240.02522847498304 260.33664983122026 239.96999999999997 260.2399999999999 Z" stroke-linecap="round" />
</g>
</svg>