<?xml version="1.0" encoding="UTF-8" standalone="no" ?>
<!DOCTYPE svg PUBLIC "-//W3C//DTD SVG 1.1//EN" "http://www.w3.org/Graphics/SVG/1.1/DTD/svg11.dtd">
<svg xmlns="http://www.w3.org/2000/svg" xmlns:xlink="http://www.w3.org/1999/xlink" version="1.1" width="323" height="281" viewBox="89 110 323 281" xml:space="preserve">
<desc>Created with Fabric.js 4.6.0</desc>
<defs>
</defs>
<g transform="matrix(1 0 0 1 143 300)" id="CW7lDOZ-d1hLvyEqVGslL"  >
<path style="stroke: rgb(0,0,0); stroke-width: 1; stroke-dasharray: none; stroke-linecap: butt; stroke-dashoffset: 0; stroke-linejoin: miter; stroke-miterlimit: 10; fill: rgb(252,238,33); fill-rule: nonzero; opacity: 1;" vector-effect="non-scaling-stroke"  transform=" translate(-112.5, -278.5)" d="M 112.5 278.5" stroke-linecap="round" />
</g>
<g transform="matrix(1 0 0 1 162 293)" id="8PtU_6EM2C9WjRZmBQ-2r"  >
<path style="stroke: rgb(0,0,0); stroke-width: 1; stroke-dasharray: none; stroke-linecap: butt; stroke-dashoffset: 0; stroke-linejoin: miter; stroke-miterlimit: 10; fill: rgb(252,238,33); fill-rule: nonzero; opacity: 1;" vector-effect="non-scaling-stroke"  transform=" translate(-131.5, -271.5)" d="M 131.5 271.5" stroke-linecap="round" />
</g>
<g transform="matrix(1 0 0 1 178 277)" id="h1LPj4pOwRMkbdgmMHIrF"  >
<path style="stroke: rgb(0,0,0); stroke-width: 1; stroke-dasharray: none; stroke-linecap: round; stroke-dashoffset: 0; stroke-linejoin: miter; stroke-miterlimit: 10; fill: rgb(252,238,33); fill-rule: nonzero; opacity: 1;" vector-effect="non-scaling-stroke"  transform=" translate(-147.5, -255.5)" d="M 147.5 255.5" stroke-linecap="round" />
</g>
<g transform="matrix(1 0 0 1 311 306)" id="gw91ax4_M34nG4vFUgjJ2"  >
<path style="stroke: rgb(0,0,0); stroke-width: 1; stroke-dasharray: none; stroke-linecap: butt; stroke-dashoffset: 0; stroke-linejoin: miter; stroke-miterlimit: 10; fill: rgb(252,238,33); fill-rule: nonzero; opacity: 1;" vector-effect="non-scaling-stroke"  transform=" translate(-280.5, -284.5)" d="M 280.5 284.5" stroke-linecap="round" />
</g>
<g transform="matrix(1 0 0 1 250 250)" id="RwZJ7AfbIb9hSva8pWhsc"  >
<path style="stroke: rgb(0,0,0); stroke-width: 1; stroke-dasharray: none; stroke-linecap: butt; stroke-dashoffset: 0; stroke-linejoin: miter; stroke-miterlimit: 4; fill: rgb(0,0,0); fill-rule: nonzero; opacity: 1;" vector-effect="non-scaling-stroke"  transform=" translate(-155.92, -135)" d="M 0.92 269 L 155.92 1 L 310.91999999999996 269 L 298.91999999999996 269 L 155.91999999999996 20 L 11.919999999999959 269 z" stroke-linecap="round" />
</g>
<g transform="matrix(1 0 0 1 249.5 279.5)" id="hygfuXmZx7Hmts6_g6zFp"  >
<path style="stroke: rgb(0,0,0); stroke-width: 1; stroke-dasharray: none; stroke-linecap: butt; stroke-dashoffset: 0; stroke-linejoin: miter; stroke-miterlimit: 4; fill: rgb(0,0,0); fill-rule: nonzero; opacity: 1;" vector-effect="non-scaling-stroke"  transform=" translate(-155.42, -164.5)" d="M 34.92 269 L 155.92000000000002 60 L 275.92 269 L 264.92 269 L 154.92000000000002 80 L 45.920000000000016 269 z" stroke-linecap="round" />
</g>
<g transform="matrix(1 0 0 1 248.5 309.5)" id="RNe_RfvvVeQTEOAWslfG-"  >
<path style="stroke: rgb(0,0,0); stroke-width: 1; stroke-dasharray: none; stroke-linecap: butt; stroke-dashoffset: 0; stroke-linejoin: miter; stroke-miterlimit: 4; fill: rgb(0,0,0); fill-rule: nonzero; opacity: 1;" vector-effect="non-scaling-stroke"  transform=" translate(-154.42, -194.5)" d="M 67.92 269 L 153.92000000000002 120 L 240.92000000000002 269 L 228.92000000000002 269 L 153.92000000000002 140 L 79.92000000000002 269 z" stroke-linecap="round" />
</g>
<g transform="matrix(1 0 0 1 119.43 380.25)" id="MhizfQPzmPeYqGADLuZBM"  >
<path style="stroke: rgb(0,0,0); stroke-width: 1; stroke-dasharray: none; stroke-linecap: butt; stroke-dashoffset: 0; stroke-linejoin: miter; stroke-miterlimit: 4; fill: rgb(0,0,0); fill-rule: nonzero; opacity: 1;" vector-effect="non-scaling-stroke"  transform=" translate(-25.35, -265.25)" d="M 0.92 269 L 45.92 269 L 49.78 261.5 L 5.75 261.5 z" stroke-linecap="round" />
</g>
<g transform="matrix(1 0 0 1 344.17 380.25)" id="J0tg4Gj72nug0FblL62Fk"  >
<path style="stroke: rgb(0,0,0); stroke-width: 1; stroke-dasharray: none; stroke-linecap: butt; stroke-dashoffset: 0; stroke-linejoin: miter; stroke-miterlimit: 4; fill: rgb(0,0,0); fill-rule: nonzero; opacity: 1;" vector-effect="non-scaling-stroke"  transform=" translate(-250.09, -265.25)" d="M 275.92 269 L 228.92000000000002 269 L 224.26000000000002 261.5 L 271.6 261.5 z" stroke-linecap="round" />
</g>
<g transform="matrix(1 0 0 1 249.98 251)" id="XQwk_Xg56i2QjbwvDqSk0"  >
<linearGradient id="SVGID_39" gradientUnits="userSpaceOnUse" gradientTransform="matrix(1 0 0 1 0 0)"  x1="70.5" y1="229.51" x2="368.5" y2="229.51">
<stop offset="0%" style="stop-color:rgb(255,0,0);stop-opacity: 1"/>
<stop offset="37%" style="stop-color:rgb(253,0,0);stop-opacity: 1"/>
<stop offset="51%" style="stop-color:rgb(246,0,0);stop-opacity: 1"/>
<stop offset="60%" style="stop-color:rgb(235,0,0);stop-opacity: 1"/>
<stop offset="68%" style="stop-color:rgb(218,0,0);stop-opacity: 1"/>
<stop offset="75%" style="stop-color:rgb(196,0,0);stop-opacity: 1"/>
<stop offset="80%" style="stop-color:rgb(168,0,0);stop-opacity: 1"/>
<stop offset="86%" style="stop-color:rgb(136,0,0);stop-opacity: 1"/>
<stop offset="91%" style="stop-color:rgb(98,0,0);stop-opacity: 1"/>
<stop offset="95%" style="stop-color:rgb(55,0,0);stop-opacity: 1"/>
<stop offset="99%" style="stop-color:rgb(9,0,0);stop-opacity: 1"/>
<stop offset="100%" style="stop-color:rgb(0,0,0);stop-opacity: 1"/>
</linearGradient>
<path style="stroke: none; stroke-width: 1; stroke-dasharray: none; stroke-linecap: butt; stroke-dashoffset: 0; stroke-linejoin: miter; stroke-miterlimit: 4; fill: url(#SVGID_39); fill-rule: nonzero; opacity: 1;" vector-effect="non-scaling-stroke"  transform=" translate(-219.48, -229.5)" d="M 366.33 357.6 L 292.13 231.50000000000003 L 218.13 105.31000000000003 L 220.91 105.31000000000003 L 184.48 168.75000000000003 L 166.19 200.42000000000002 L 147.73 232 C 135.3 253 123 274 110.45 295 L 91.66 326.33 C 85.33 336.75 79.06 347.21 72.66 357.59999999999997 C 72.60072997501723 357.688364904896 72.48473721213236 357.718437102681 72.39 357.66999999999996 C 72.30163509510399 357.6107299750172 72.27156289731901 357.49473721213235 72.32000000000001 357.4 C 78.18 346.7 84.16000000000001 336.08 90.08000000000001 325.4 L 108.08000000000001 293.53 C 120.08000000000001 272.29999999999995 132.23000000000002 251.15999999999997 144.3 229.97999999999996 L 162.61 198.30999999999995 L 181 166.75 L 218.07 103.69 L 219.47 101.31 L 220.85 103.69 L 293.85 230.5 L 366.65000000000003 357.4 C 366.68487020031324 357.4912203811366 366.6487628586355 357.5942851376853 366.564588070103 357.643799719175 C 366.4804132815705 357.69331430066467 366.3727878193503 357.6747982522912 366.31000000000006 357.59999999999997 Z" stroke-linecap="round" />
</g>
<g transform="matrix(1 0 0 1 249.01 279.83)" id="8V54onnVnWgdBbkWLusHu"  >
<linearGradient id="SVGID_40" gradientUnits="userSpaceOnUse" gradientTransform="matrix(1 0 0 1 0 0)"  x1="104.5" y1="258.31" x2="332.5" y2="258.31">
<stop offset="0%" style="stop-color:rgb(255,0,0);stop-opacity: 1"/>
<stop offset="37%" style="stop-color:rgb(253,0,0);stop-opacity: 1"/>
<stop offset="51%" style="stop-color:rgb(246,0,0);stop-opacity: 1"/>
<stop offset="60%" style="stop-color:rgb(235,0,0);stop-opacity: 1"/>
<stop offset="68%" style="stop-color:rgb(218,0,0);stop-opacity: 1"/>
<stop offset="75%" style="stop-color:rgb(196,0,0);stop-opacity: 1"/>
<stop offset="80%" style="stop-color:rgb(168,0,0);stop-opacity: 1"/>
<stop offset="86%" style="stop-color:rgb(136,0,0);stop-opacity: 1"/>
<stop offset="91%" style="stop-color:rgb(98,0,0);stop-opacity: 1"/>
<stop offset="95%" style="stop-color:rgb(55,0,0);stop-opacity: 1"/>
<stop offset="99%" style="stop-color:rgb(9,0,0);stop-opacity: 1"/>
<stop offset="100%" style="stop-color:rgb(0,0,0);stop-opacity: 1"/>
</linearGradient>
<path style="stroke: none; stroke-width: 1; stroke-dasharray: none; stroke-linecap: butt; stroke-dashoffset: 0; stroke-linejoin: miter; stroke-miterlimit: 4; fill: url(#SVGID_40); fill-rule: nonzero; opacity: 1;" vector-effect="non-scaling-stroke"  transform=" translate(-218.51, -258.33)" d="M 106.33 356.4 L 162.1 259.30999999999995 L 218.04 162.30999999999995 L 219.41 159.92999999999995 L 220.81 162.31999999999994 L 248.91 210.47999999999993 L 262.90999999999997 234.59999999999994 L 276.71999999999997 258.81999999999994 C 285.79999999999995 275.0299999999999 294.96999999999997 291.19999999999993 303.96999999999997 307.4599999999999 L 317.44 331.86999999999995 C 321.86 340.04999999999995 326.34 348.18999999999994 330.7 356.4 C 330.7278818083236 356.44582620933585 330.7350933959497 356.50130303488487 330.7198544025 356.55273463777775 C 330.70461540905023 356.6041662406706 330.66834593312524 356.64675978813045 330.62 356.66999999999996 C 330.57626383225966 356.69530256126995 330.52425047955796 356.7021419648943 330.4754599115691 356.6890060427434 C 330.42666934358016 356.6758701205926 330.3851206136151 356.643840925481 330.36 356.59999999999997 C 325.46000000000004 348.68999999999994 320.69 340.71999999999997 315.85 332.78 L 301.55 308.84999999999997 C 292.04 292.84999999999997 282.69 276.84999999999997 273.26 260.84999999999997 L 259.26 236.70999999999998 L 245.45999999999998 212.48999999999998 L 218 163.92 L 220.77 163.92 L 163.77 260.29999999999995 L 106.67 356.6 C 106.64163095732879 356.67421336446887 106.57202366869214 356.72459719317146 106.49266215923889 356.7283624109831 C 106.41330064978564 356.7321276287947 106.33923594704456 356.68856015659406 106.30396820609157 356.61736596795527 C 106.26870046513856 356.5461717793164 106.2789182651554 356.4608529573081 106.33 356.40000000000003 Z" stroke-linecap="round" />
</g>
<g transform="matrix(1 0 0 1 247.42 310.51)" id="nD2EqreTrGsRT55oII1Jf"  >
<linearGradient id="SVGID_41" gradientUnits="userSpaceOnUse" gradientTransform="matrix(1 0 0 1 0 0)"  x1="137.5" y1="289.02" x2="296.36" y2="289.02">
<stop offset="0%" style="stop-color:rgb(255,0,0);stop-opacity: 1"/>
<stop offset="37%" style="stop-color:rgb(253,0,0);stop-opacity: 1"/>
<stop offset="51%" style="stop-color:rgb(246,0,0);stop-opacity: 1"/>
<stop offset="60%" style="stop-color:rgb(235,0,0);stop-opacity: 1"/>
<stop offset="68%" style="stop-color:rgb(218,0,0);stop-opacity: 1"/>
<stop offset="75%" style="stop-color:rgb(196,0,0);stop-opacity: 1"/>
<stop offset="80%" style="stop-color:rgb(168,0,0);stop-opacity: 1"/>
<stop offset="86%" style="stop-color:rgb(136,0,0);stop-opacity: 1"/>
<stop offset="91%" style="stop-color:rgb(98,0,0);stop-opacity: 1"/>
<stop offset="95%" style="stop-color:rgb(55,0,0);stop-opacity: 1"/>
<stop offset="99%" style="stop-color:rgb(9,0,0);stop-opacity: 1"/>
<stop offset="100%" style="stop-color:rgb(0,0,0);stop-opacity: 1"/>
</linearGradient>
<path style="stroke: none; stroke-width: 1; stroke-dasharray: none; stroke-linecap: butt; stroke-dashoffset: 0; stroke-linejoin: miter; stroke-miterlimit: 4; fill: url(#SVGID_41); fill-rule: nonzero; opacity: 1;" vector-effect="non-scaling-stroke"  transform=" translate(-216.92, -289.01)" d="M 294.19 354.66 L 255.07 289.53000000000003 L 216.13 224.31000000000003 L 218.88 224.31000000000003 L 199.7 258 L 190.04999999999998 274.81 L 180.23 291.52 C 173.60999999999999 302.62 166.98 313.71 160.23 324.71 L 150 341.21 C 146.54 346.66999999999996 143.15 352.21 139.63 357.59999999999997 C 139.56721218064976 357.6747982522913 139.45958671842953 357.6933143006648 139.375411929897 357.64379971917504 C 139.2912371413645 357.59428513768535 139.25512979968676 357.4912203811366 139.29 357.4 C 142.29 351.65999999999997 145.38 345.98999999999995 148.42 340.28999999999996 L 157.75 323.28999999999996 C 163.98 311.96 170.35 300.71999999999997 176.75 289.47999999999996 L 186.43 272.68999999999994 L 196.3 256 L 216.12 222.69 L 217.52 220.34 L 218.87 222.69 L 256.79 288.52 L 294.53000000000003 354.45 C 294.5836287973526 354.5441066499177 294.5525962671834 354.66380355199897 294.46000000000004 354.71999999999997 C 294.4166864108178 354.74941199711265 294.3631557598324 354.7596475163562 294.312046679352 354.74828994291613 C 294.2609375988716 354.73693236947605 294.21678017024675 354.7049883880969 294.19 354.66 Z" stroke-linecap="round" />
</g>
</svg>