<svg id="Layer_2" data-name="Layer 2" xmlns="http://www.w3.org/2000/svg" xmlns:xlink="http://www.w3.org/1999/xlink" viewBox="0 0 311.78 269.5"><defs><linearGradient id="linear-gradient" x1="70.5" y1="229.51" x2="368.5" y2="229.51" gradientUnits="userSpaceOnUse"><stop offset="0" stop-color="red"/><stop offset="0.37" stop-color="#fd0000"/><stop offset="0.51" stop-color="#f60000"/><stop offset="0.6" stop-color="#eb0000"/><stop offset="0.68" stop-color="#da0000"/><stop offset="0.75" stop-color="#c40000"/><stop offset="0.8" stop-color="#a80000"/><stop offset="0.86" stop-color="#800"/><stop offset="0.91" stop-color="#620000"/><stop offset="0.95" stop-color="#370000"/><stop offset="0.99" stop-color="#090000"/><stop offset="1"/></linearGradient><linearGradient id="linear-gradient-2" x1="104.5" y1="258.31" x2="332.5" y2="258.31" xlink:href="#linear-gradient"/><linearGradient id="linear-gradient-3" x1="137.5" y1="289.02" x2="296.36" y2="289.02" xlink:href="#linear-gradient"/></defs><title>logoscaleableredblack</title><path d="M112.5,278.5" transform="translate(-63.58 -93.5)" style="fill:#fcee21;stroke:#000;stroke-miterlimit:10"/><path d="M131.5,271.5" transform="translate(-63.58 -93.5)" style="fill:#fcee21;stroke:#000;stroke-miterlimit:10"/><path d="M147.5,255.5" transform="translate(-63.58 -93.5)" style="fill:#fcee21;stroke:#000;stroke-linecap:round;stroke-miterlimit:10"/><path d="M280.5,284.5" transform="translate(-63.58 -93.5)" style="fill:#fcee21;stroke:#000;stroke-miterlimit:10"/><polygon points="0.92 269 155.92 1 310.92 269 298.92 269 155.92 20 11.92 269 0.92 269" style="stroke:#000;stroke-linecap:round;stroke-miterlimit:10"/><polygon points="34.92 269 155.92 60 275.92 269 264.92 269 154.92 80 45.92 269 34.92 269" style="stroke:#000;stroke-linecap:round;stroke-miterlimit:10"/><polygon points="67.92 269 153.92 120 240.92 269 228.92 269 153.92 140 79.92 269 67.92 269" style="stroke:#000;stroke-linecap:round;stroke-miterlimit:10"/><polygon points="0.92 269 45.92 269 49.78 261.5 5.75 261.5 0.92 269" style="stroke:#000;stroke-linecap:round;stroke-miterlimit:10"/><polygon points="275.92 269 228.92 269 224.26 261.5 271.6 261.5 275.92 269" style="stroke:#000;stroke-linecap:round;stroke-miterlimit:10"/><path d="M366.33,357.6l-74.2-126.1-74-126.19h2.78l-36.43,63.44-18.29,31.67L147.73,232C135.3,253,123,274,110.45,295L91.66,326.33c-6.33,10.42-12.6,20.88-19,31.27a.21.21,0,0,1-.27.07.21.21,0,0,1-.07-.27c5.86-10.7,11.84-21.32,17.76-32l18-31.87c12-21.23,24.15-42.37,36.22-63.55l18.31-31.67L181,166.75l37.07-63.06,1.4-2.38,1.38,2.38,73,126.81,72.8,126.9a.2.2,0,0,1-.34.2Z" transform="translate(-63.58 -93.5)" style="fill:url(#linear-gradient)"/><path d="M106.33,356.4l55.77-97.09,55.94-97,1.37-2.38,1.4,2.39,28.1,48.16,14,24.12,13.81,24.22c9.08,16.21,18.25,32.38,27.25,48.64l13.47,24.41c4.42,8.18,8.9,16.32,13.26,24.53a.19.19,0,0,1-.08.27.19.19,0,0,1-.26-.07c-4.9-7.91-9.67-15.88-14.51-23.82l-14.3-23.93c-9.51-16-18.86-32-28.29-48l-14-24.14-13.8-24.22L218,163.92h2.77l-57,96.38L106.67,356.6a.2.2,0,1,1-.34-.2Z" transform="translate(-63.58 -93.5)" style="fill:url(#linear-gradient-2)"/><path d="M294.19,354.66l-39.12-65.13-38.94-65.22h2.75L199.7,258l-9.65,16.81-9.82,16.71c-6.62,11.1-13.25,22.19-20,33.19L150,341.21c-3.46,5.46-6.85,11-10.37,16.39a.2.2,0,0,1-.34-.2c3-5.74,6.09-11.41,9.13-17.11l9.33-17c6.23-11.33,12.6-22.57,19-33.81l9.68-16.79L196.3,256l19.82-33.31,1.4-2.35,1.35,2.35,37.92,65.83,37.74,65.93a.2.2,0,0,1-.07.27A.19.19,0,0,1,294.19,354.66Z" transform="translate(-63.58 -93.5)" style="fill:url(#linear-gradient-3)"/></svg>