<svg xmlns="http://www.w3.org/2000/svg" xmlns:xlink="http://www.w3.org/1999/xlink" viewBox="0 0 316.61 267.66"><defs><linearGradient id="linear-gradient" x1="8.61" y1="136.66" x2="162.61" y2="136.66" gradientUnits="userSpaceOnUse"><stop offset="0" stop-color="#ff4e05"/><stop offset="0.61" stop-color="#601d02"/><stop offset="1"/></linearGradient><linearGradient id="linear-gradient-2" x1="159.11" y1="135.67" x2="311.11" y2="135.67" xlink:href="#linear-gradient"/><linearGradient id="linear-gradient-3" x1="39.11" y1="163.67" x2="162.11" y2="163.67" gradientUnits="userSpaceOnUse"><stop offset="0"/><stop offset="0.39" stop-color="#601d02"/><stop offset="1" stop-color="#ff4e05"/></linearGradient><linearGradient id="linear-gradient-4" x1="158.61" y1="162.91" x2="278.11" y2="162.91" xlink:href="#linear-gradient-3"/><linearGradient id="linear-gradient-5" x1="75.11" y1="191.16" x2="161.11" y2="191.16" xlink:href="#linear-gradient"/><linearGradient id="linear-gradient-6" x1="160.11" y1="193.67" x2="242.11" y2="193.67" xlink:href="#linear-gradient"/></defs><title>logo-1</title><g id="Layer_2" data-name="Layer 2"><g id="Layer_1-2" data-name="Layer 1"><polyline points="310.62 261.66 161.1 11.66 10.62 261.66 42.65 261.66 160.13 66.7 277.61 261.66 242.65 261.66 159.16 122.67 75.66 261.66" style="fill:none;stroke:#000;stroke-linecap:round;stroke-miterlimit:10;stroke-width:12px"/><path d="M10.44,261.56c2.87-5.37,5.85-10.66,8.77-16l9-15.88c6-10.58,12.1-21.07,18.23-31.56,12.28-21,25.16-41.57,37.84-62.29l38-62.19,38.18-62.09a.2.2,0,0,1,.35.2L124,74.68,87,137.49c-12.32,20.94-24.44,42-37.16,62.7-6.37,10.34-12.75,20.69-19.27,30.94l-9.79,15.38c-3.33,5.08-6.6,10.2-10,15.25a.2.2,0,0,1-.28.06A.21.21,0,0,1,10.44,261.56Z" style="fill:url(#linear-gradient)"/><path d="M161.29,12.06c3.34,5,6.57,10,9.86,15.07l9.66,15.19c6.44,10.13,12.73,20.35,19,30.56,12.56,20.45,24.51,41.27,36.66,62L273,196.9l36.32,62.16a.2.2,0,0,1-.08.27.19.19,0,0,1-.27-.07l-37.68-61.33-37.52-61.45C221.22,116,208.51,95.66,196.4,74.94c-6-10.37-12.09-20.73-18-31.19l-8.84-15.68c-2.88-5.27-5.82-10.5-8.64-15.81A.21.21,0,0,1,161,12,.22.22,0,0,1,161.29,12.06Z" style="fill:url(#linear-gradient-2)"/><path d="M160.29,65.27Q153.54,78,146.44,90.51c-4.7,8.36-9.52,16.66-14.36,24.94-9.67,16.56-20,32.71-30.1,49L71.72,213.43,41.29,262.27a.2.2,0,0,1-.35-.21L70,212.39l29.24-49.56c9.76-16.5,19.24-33.19,29.4-49.45,5.08-8.14,10.18-16.26,15.39-24.32s10.48-16.07,15.9-24a.2.2,0,0,1,.28,0A.2.2,0,0,1,160.29,65.27Z" style="fill:url(#linear-gradient-3)"/><path d="M275.94,260.26q-7.92-11.73-15.47-23.69c-5.07-8-10-16-15-24C235.64,196.5,226.46,180,217,163.73L188.63,114.8l-28.19-49a.2.2,0,0,1,.08-.27.21.21,0,0,1,.27.07l29.56,48.22,29.39,48.31c9.77,16.12,19.85,32.07,29.22,48.43,4.69,8.17,9.37,16.36,13.93,24.61s9.05,16.55,13.4,24.93a.2.2,0,0,1-.09.27A.2.2,0,0,1,275.94,260.26Z" style="fill:url(#linear-gradient-4)"/><path d="M159.29,122.26l-19.82,34.91-20,34.81c-6.68,11.59-13.07,23.35-20.16,34.7-3.53,5.68-7.09,11.35-10.76,16.95s-7.4,11.16-11.28,16.63a.2.2,0,0,1-.28.05.2.2,0,0,1-.07-.25q4.43-9,9.22-17.87c3.16-5.9,6.44-11.73,9.74-17.55,6.58-11.65,13.86-22.88,20.84-34.3l21-34.19,21.18-34.09a.21.21,0,0,1,.28-.06A.19.19,0,0,1,159.29,122.26Z" style="fill:url(#linear-gradient-5)"/><path d="M239.94,260.26l-20.19-32.84-20-32.95c-6.65-11-13.59-21.81-19.84-33.05-3.13-5.61-6.24-11.23-9.24-16.92s-5.93-11.42-8.71-17.24a.2.2,0,0,1,.35-.2q5.58,7.91,10.79,16c3.5,5.39,6.89,10.85,10.26,16.32,6.75,10.94,12.8,22.28,19.15,33.45l19,33.56,18.81,33.65a.2.2,0,0,1-.35.2Z" style="fill:url(#linear-gradient-6)"/></g></g></svg>